<svg version="1.2" xmlns="http://www.w3.org/2000/svg" viewBox="0 0 256 256" width="256" height="256"><defs><linearGradient id="P" gradientUnits="userSpaceOnUse"/><linearGradient id="g1" x2="1" href="#P" gradientTransform="matrix(256,-147.802,147.802,256,-0.19,202.471)"><stop stop-color="#313840"/><stop offset="1" stop-color="#6b6e72"/></linearGradient></defs><style>.a{fill:url(#g1)}.b{fill:#f6f3ee}.c{fill:none;stroke:#313840;stroke-miterlimit:100;stroke-width:5}</style><path fill-rule="evenodd" class="a" d="m127.8 256.6c-70.8 0-128-57.3-128-128 0-70.8 57.2-128 128-128 70.8 0 128 57.2 128 128 0 70.7-57.2 128-128 128z"/><path class="b" d="m61 199l-23-40 64-107h53l65 107-24 41h-25l-41-72c0 0-18.7 28.7-22 33-2.6-11.5-20.5-15.2-26.8-5.2-6.3 10.1 0.9 22 15.8 24.2-2.6 4-11.2 19.2-11.2 19.2z"/><path fill-rule="evenodd" class="c" d="m101.7 49.5l37 63.1-15.1 24.7"/><path class="c" d="m68.7 105.9l-31.9 52.7 24 41 24.7 0.4c0 0 13.7-21.9 13.1-21.5-15.3 1.8-24.5-10.9-16.8-22.6 8.5-13.1 26.8-3.1 27 7 0.2 0.3 14.4-24.6 14.4-24.6 0 0-20.3-11.5-19.3-12 17.3-4.7 14-20.8 6.3-25.4-7.4-4.4-22.7-5.2-21.6 16.3 0.5 0.7-19.9-11.3-19.9-11.3z"/><path fill-rule="evenodd" class="c" d="m67.9 105.9l33.8-55.4 53-0.1 40.7 68c0 0-20 11.8-18.5 11.1 16.4 2.5 15.4 21.1 4.6 27.2-9.9 5.5-25.2-1-21.2-17.1 0.3-1-18.9 11.3-18.9 11.3l28.8 48.7 25.6-0.1 23.7-40.4-23.3-40.7"/></svg>